<svg width="164" height="171" viewBox="0 0 164 171" fill="none" xmlns="http://www.w3.org/2000/svg">
<path fill-rule="evenodd" clip-rule="evenodd" d="M69.9818 40.6994C70.003 40.7452 70.024 40.791 70.0447 40.8368C73.776 40.4084 77.7717 40.1577 82.0131 40.1577C86.2451 40.1577 90.2321 40.4073 93.9562 40.8339C93.9763 40.7896 93.9966 40.7452 94.0172 40.7007C94.3436 38.142 99.3252 -0.000832645 106.207 1.36325e-08C114.24 0.000972151 133.607 20.0005 146.245 43.3779C148.386 46.9237 150.327 51.1612 151.963 55.2277C154.477 61.4747 156.558 68.0585 157.746 72.8188C161.606 88.3004 163.725 106.888 163.999 124.502C164.014 125.42 163.797 126.327 163.372 127.139C162.174 129.423 160.484 131.645 158.479 133.751C143.699 151.165 120.895 171.643 112.738 170.044C107.61 169.039 108.299 144.727 108.717 135.941C101.439 137.664 92.5918 138.843 82.0134 138.843C71.3525 138.843 62.4498 137.646 55.1396 135.901C55.5579 144.653 56.2565 169.038 51.1212 170.044C42.6089 171.713 18.1503 149.343 3.50007 131.5C3.49414 131.493 3.49835 131.482 3.51244 131.466C2.3778 130.059 1.40038 128.612 0.628058 127.139C0.202137 126.327 -0.0135913 125.42 0.000663217 124.502C0.274233 106.888 2.39344 88.3004 6.25381 72.8188C7.44081 68.0585 9.52262 61.4747 12.0363 55.2277C13.6714 51.1641 15.6106 46.9297 17.7504 43.3854C30.3884 20.0048 49.7579 0.000972255 57.7926 1.36325e-08C64.6727 -0.000832496 69.6538 38.1284 69.9818 40.6994ZM54.6855 79.6312C50.9108 79.6492 47.2965 81.2744 44.6333 84.1513C41.97 87.0283 40.4748 90.9224 40.4748 94.9821C40.4748 99.0416 41.97 102.936 44.6333 105.813C47.2965 108.69 50.9108 110.315 54.6855 110.333C58.4602 110.315 62.0747 108.69 64.7379 105.813C67.4011 102.936 68.8963 99.0416 68.8963 94.9821C68.8963 90.9224 67.4011 87.0283 64.7379 84.1513C62.0747 81.2744 58.4602 79.6492 54.6855 79.6312ZM99.2766 84.1513C101.94 81.2744 105.554 79.6492 109.329 79.6312C113.104 79.6492 116.718 81.2744 119.381 84.1513C122.045 87.0283 123.54 90.9224 123.54 94.9821C123.54 99.0416 122.045 102.936 119.381 105.813C116.718 108.69 113.104 110.315 109.329 110.333C105.554 110.315 101.94 108.69 99.2766 105.813C96.6134 102.936 95.1182 99.0416 95.1182 94.9821C95.1182 90.9224 96.6134 87.0283 99.2766 84.1513Z" fill="white"/>
</svg>
