<svg width="256" height="256" viewBox="0 0 256 256" fill="none" xmlns="http://www.w3.org/2000/svg">
<rect width="256" height="256" rx="128" fill="#FF7A00"/>
<path fill-rule="evenodd" clip-rule="evenodd" d="M115.982 78.6994C116.003 78.7452 116.024 78.791 116.045 78.8368C119.776 78.4084 123.772 78.1577 128.013 78.1577C132.245 78.1577 136.232 78.4073 139.956 78.8339C139.976 78.7896 139.997 78.7452 140.017 78.7007C140.344 76.142 145.325 37.9992 152.207 38C160.24 38.001 179.607 58.0005 192.245 81.3779C194.386 84.9237 196.327 89.1612 197.963 93.2277C200.477 99.4747 202.558 106.058 203.746 110.819C207.606 126.3 209.725 144.888 209.999 162.502C210.014 163.42 209.797 164.327 209.372 165.139C208.174 167.423 206.484 169.645 204.479 171.751C189.699 189.165 166.895 209.643 158.738 208.044C153.61 207.039 154.299 182.727 154.717 173.941C147.439 175.664 138.592 176.843 128.013 176.843C117.353 176.843 108.45 175.646 101.14 173.901C101.558 182.653 102.256 207.038 97.1212 208.044C88.6089 209.713 64.1503 187.343 49.5001 169.5C49.4941 169.493 49.4983 169.482 49.5124 169.466C48.3778 168.059 47.4004 166.612 46.6281 165.139C46.2021 164.327 45.9864 163.42 46.0007 162.502C46.2742 144.888 48.3934 126.3 52.2538 110.819C53.4408 106.058 55.5226 99.4747 58.0363 93.2277C59.6714 89.1641 61.6106 84.9297 63.7504 81.3854C76.3884 58.0048 95.7579 38.001 103.793 38C110.673 37.9992 115.654 76.1284 115.982 78.6994ZM100.686 117.631C96.9108 117.649 93.2965 119.274 90.6333 122.151C87.97 125.028 86.4748 128.922 86.4748 132.982C86.4748 137.042 87.97 140.936 90.6333 143.813C93.2965 146.69 96.9108 148.315 100.686 148.333C104.46 148.315 108.075 146.69 110.738 143.813C113.401 140.936 114.896 137.042 114.896 132.982C114.896 128.922 113.401 125.028 110.738 122.151C108.075 119.274 104.46 117.649 100.686 117.631ZM145.277 122.151C147.94 119.274 151.554 117.649 155.329 117.631C159.104 117.649 162.718 119.274 165.381 122.151C168.045 125.028 169.54 128.922 169.54 132.982C169.54 137.042 168.045 140.936 165.381 143.813C162.718 146.69 159.104 148.315 155.329 148.333C151.554 148.315 147.94 146.69 145.277 143.813C142.613 140.936 141.118 137.042 141.118 132.982C141.118 128.922 142.613 125.028 145.277 122.151Z" fill="white"/>
</svg>
